<svg width="27" height="27" viewBox="0 0 27 27" fill="none" xmlns="http://www.w3.org/2000/svg">
<g clip-path="url(#clip0_2218_1663)">
<path fill-rule="evenodd" clip-rule="evenodd" d="M25.3902 14.2242L15.1488 3.98288C14.8405 3.67204 14.4203 3.49782 13.9825 3.49922H4.42383C3.96819 3.49922 3.59883 3.86858 3.59883 4.32422V13.8829C3.59743 14.3207 3.77165 14.7408 4.08248 15.0492L14.3238 25.2906C14.6333 25.6001 15.053 25.774 15.4907 25.774C15.9284 25.774 16.3481 25.6001 16.6575 25.2906L25.3902 16.5579C25.6997 16.2485 25.8736 15.8288 25.8736 15.3911C25.8736 14.9534 25.6997 14.5337 25.3902 14.2242ZM15.4902 24.1242L5.24883 13.8829V5.14922H13.9825L24.2238 15.3906L15.4902 24.1242ZM10.1988 8.86172C10.1988 9.54517 9.64478 10.0992 8.96133 10.0992C8.27788 10.0992 7.72383 9.54517 7.72383 8.86172C7.72383 8.17827 8.27788 7.62422 8.96133 7.62422C9.64478 7.62422 10.1988 8.17827 10.1988 8.86172Z" fill="#121A0F"/>
</g>
<defs>
<clipPath id="clip0_2218_1663">
<rect width="26.4" height="26.4" fill="white" transform="translate(0.299805 0.199219)"/>
</clipPath>
</defs>
</svg>
