<svg width="27" height="27" viewBox="0 0 27 27" fill="none" xmlns="http://www.w3.org/2000/svg">
<g clip-path="url(#clip0_2218_1653)">
<path fill-rule="evenodd" clip-rule="evenodd" d="M6.69961 24.5367C6.69961 25.2202 6.14556 25.7742 5.46211 25.7742C4.77866 25.7742 4.22461 25.2202 4.22461 24.5367C4.22461 23.8533 4.77866 23.2992 5.46211 23.2992C6.14556 23.2992 6.69961 23.8533 6.69961 24.5367ZM8.76211 19.9992C8.07866 19.9992 7.52461 20.5533 7.52461 21.2367C7.52461 21.9202 8.07866 22.4742 8.76211 22.4742C9.44556 22.4742 9.99961 21.9202 9.99961 21.2367C9.99961 20.5533 9.44556 19.9992 8.76211 19.9992ZM2.16211 19.9992C1.47866 19.9992 0.924609 20.5533 0.924609 21.2367C0.924609 21.9202 1.47866 22.4742 2.16211 22.4742C2.84556 22.4742 3.39961 21.9202 3.39961 21.2367C3.39961 20.5533 2.84556 19.9992 2.16211 19.9992ZM5.46211 16.6992C4.77866 16.6992 4.22461 17.2533 4.22461 17.9367C4.22461 18.6202 4.77866 19.1742 5.46211 19.1742C6.14556 19.1742 6.69961 18.6202 6.69961 17.9367C6.69961 17.2533 6.14556 16.6992 5.46211 16.6992ZM26.4996 4.32422C26.4996 4.77985 26.1302 5.14922 25.6746 5.14922H22.716L19.8439 8.02228L17.6102 21.0975C17.5077 21.7065 17.0738 22.2073 16.4855 22.3953C15.8973 22.5833 15.2533 22.4272 14.8166 21.9906L4.71033 11.8843C4.27302 11.4472 4.1168 10.8023 4.3056 10.2135C4.4944 9.62473 4.99653 9.19092 5.60648 9.08963L18.6765 6.85491L21.5496 3.98288C21.858 3.67204 22.2781 3.49782 22.716 3.49922H25.6746C26.1302 3.49922 26.4996 3.86858 26.4996 4.32422ZM18.065 8.63381L5.87461 10.718L15.9809 20.8242L18.065 8.63381Z" fill="#121A0F"/>
</g>
<defs>
<clipPath id="clip0_2218_1653">
<rect width="26.4" height="26.4" fill="white" transform="translate(0.0996094 0.199219)"/>
</clipPath>
</defs>
</svg>
