<svg width="100" height="100" viewBox="0 0 100 100" fill="none" xmlns="http://www.w3.org/2000/svg">
<g clip-path="url(#clip0_2392_716)">
<path d="M29.227 32.7734C21.641 42.5234 21.7738 59.8437 31.4692 68.4297C42.477 78.1719 57.9692 78.0703 67.7113 69.1094C79.391 58.3594 78.7192 40.4687 68.391 30.3359C58.0082 20.1484 39.4535 19.6172 29.227 32.7734Z" fill="#FCC11A"/>
<path d="M41.4066 29.4295C38.4066 28.1014 35.1254 31.7186 33.6957 34.1873C32.266 36.6639 30.9379 41.5154 33.9847 42.7576C37.0316 43.992 39.2191 41.8982 41.4144 38.2811C43.5941 34.6639 44.8363 30.9529 41.4066 29.4295Z" fill="#FEE269"/>
<path d="M30.064 22.33C30.2485 23.8603 31.0474 24.5789 32.4285 24.0315C33.8096 23.4841 42.0135 19.5231 42.6611 19.1269C43.6038 18.5526 43.4616 17.6413 42.8016 16.9303C42.1353 16.2238 32.6161 6.45642 31.7417 5.56178C30.8673 4.66715 29.0906 4.40435 29.0185 6.46716C28.9465 8.52997 29.9249 21.178 30.064 22.33ZM54.4942 16.6304C53.5868 17.7999 54.1162 18.4878 55.3688 18.9555C56.6214 19.4232 65.4625 22.951 66.1711 23.1321C66.8815 23.3022 67.6342 22.9469 67.7223 21.8742C67.815 20.8079 67.9409 6.03228 68.0227 5.05943C68.1595 3.45679 66.9056 2.74205 65.8458 3.98001C65.044 4.93248 55.0669 15.8956 54.4942 16.6304ZM76.6031 29.4086C75.4395 29.5176 74.4521 30.4093 74.9189 31.6752C75.3856 32.9411 79.586 41.5687 79.9458 42.3277C80.3056 43.0867 81.2881 43.4002 82.0099 42.6468C82.7318 41.8934 93.1353 32.0432 93.7752 31.309C94.888 30.0243 94.3905 28.3603 92.281 28.3306C90.9107 28.3077 77.7039 29.3054 76.6031 29.4086ZM80.1958 54.3032C80.7557 53.1959 81.8047 53.005 82.7411 53.8657C83.6731 54.72 93.4001 63.3404 95.1368 64.9761C96.0073 65.7971 95.4577 67.355 94.1675 67.4192C92.8708 67.4878 78.3198 67.5193 77.3028 67.4017C75.8493 67.2464 75.9029 65.9881 76.0532 65.2629C76.3531 63.7844 79.6692 55.3491 80.1958 54.3032ZM56.9446 79.053C55.7357 79.7373 56.1109 80.9815 56.911 81.7564C57.7093 82.5423 67.3885 92.7698 68.0997 93.5403C69.1309 94.6589 70.7885 94.2612 70.7576 92.4327C70.7266 90.6041 70.0322 77.2994 69.89 76.1019C69.6324 73.9361 68.7741 74.0316 67.656 74.2327C66.5443 74.4294 58.2092 78.3392 56.9446 79.053ZM31.5699 77.2881C31.4519 75.4442 32.7005 75.0754 34.3013 75.7952C35.392 76.2904 43.5949 79.0158 44.4219 79.3523C45.2533 79.6953 46.2442 80.7563 45.2063 81.9027C44.16 83.0645 35.9441 92.7563 34.5669 94.1402C33.1898 95.5241 31.4226 94.9208 31.4882 92.8625C31.5214 91.6567 31.6373 78.3378 31.5699 77.2881ZM22.5764 68.9934C24.4644 68.6251 24.9815 67.9197 24.5608 66.6788C24.0121 65.0506 20.8564 58.0377 19.9282 56.5894C19.3258 55.6474 18.3298 55.0286 17.0787 56.2384C15.8277 57.4483 6.69376 65.9516 5.71471 67.3048C4.57825 68.8826 5.84316 70.4575 7.20895 70.2832C8.82754 70.075 21.2452 69.2579 22.5764 68.9934ZM23.5289 33.1147C23.8891 31.8993 22.9897 31.1461 21.9062 31.1514C20.8226 31.1566 7.21115 30.9499 5.43827 30.856C3.87596 30.7769 2.8316 31.9278 4.42996 33.4886C5.57832 34.611 16.3807 43.9091 17.1258 44.5509C17.9816 45.2964 18.9736 45.2694 19.3664 44.1551C19.7509 43.0561 23.1591 34.3846 23.5289 33.1147Z" fill="#FFA722"/>
</g>
<defs>
<clipPath id="clip0_2392_716">
<rect width="100" height="100" fill="white"/>
</clipPath>
</defs>
</svg>
