<svg width="90" height="111" viewBox="0 0 90 111" fill="none" xmlns="http://www.w3.org/2000/svg">
<path fill-rule="evenodd" clip-rule="evenodd" d="M51.1026 5.45174C52.3574 6.94726 54.4867 7.22275 56.0456 6.08143C59.0874 3.83816 63.0418 7.22275 61.4829 10.6861L52.2813 21.5876H37.5665L28.289 10.568C26.73 7.06533 30.6844 3.68073 33.7262 5.92401L33.9924 6.12079C35.5513 7.26211 37.6806 6.94726 38.8973 5.45174L42.2053 1.35874C42.546 0.933613 42.9731 0.591449 43.4562 0.356602C43.9392 0.121756 44.4663 0 45 0C45.5336 0 46.0608 0.121756 46.5438 0.356602C47.0268 0.591449 47.4539 0.933613 47.7946 1.35874L51.1026 5.45174ZM0 75.6624C0 49.9238 20.1521 29.0652 45.019 29.0652C69.8859 29.0652 90.038 49.9238 89.9999 75.6624C89.9999 94.6713 75.095 110.099 56.73 110.099H33.2699C14.9049 110.099 0 94.6713 0 75.6624Z" fill="white"/>
<path fill-rule="evenodd" clip-rule="evenodd" d="M38.4793 21.5098H51.5592C53.8785 21.5098 55.7797 23.4776 55.7797 25.8783C55.7797 28.279 53.8785 30.2467 51.5592 30.2467H38.4793C36.1599 30.2467 34.2588 28.279 34.2588 25.8783C34.2588 23.4776 36.1599 21.5098 38.4793 21.5098ZM45.0192 68.2644H45.2854C50.9888 68.4218 55.5516 73.2232 55.5516 79.1266C55.5516 84.1641 52.2436 88.3752 47.7569 89.6346V94.0424C47.7569 95.6167 46.5402 96.8761 45.0192 96.8761C43.4983 96.8761 42.2816 95.6167 42.2816 94.0424V89.6346C40.0478 89.0122 38.0741 87.6459 36.6652 85.7467C35.2564 83.8475 34.4909 81.521 34.4869 79.1266C34.4869 77.5524 35.7037 76.293 37.2246 76.293C38.7455 76.293 39.9622 77.5524 39.9622 79.1266C39.9622 82.0389 42.2056 84.3609 44.9812 84.3609C47.7569 84.3609 50.0382 81.9996 50.0382 79.1266C50.0382 76.2536 47.7569 73.8923 44.9812 73.8923H44.7151C41.9798 73.8155 39.3812 72.6379 37.4713 70.6096C35.5615 68.5814 34.4909 65.8623 34.4869 63.0301C34.4869 57.9926 37.7949 53.7815 42.2816 52.5221V48.1143C42.2816 46.54 43.4983 45.2806 45.0192 45.2806C46.5402 45.2806 47.7569 46.54 47.7569 48.1143V52.5221C52.2436 53.7815 55.5516 57.9926 55.5516 63.0301C55.5516 64.6043 54.3348 65.8637 52.8139 65.8637C51.293 65.8637 50.0763 64.6043 50.0763 63.0301C50.0763 60.1571 47.7949 57.7958 45.0192 57.7958C42.2436 57.7958 39.9622 60.1571 39.9622 63.0301C39.9622 65.9031 42.2436 68.2644 45.0192 68.2644Z" fill="black"/>
</svg>
