<svg width="58" height="57" viewBox="0 0 58 57" fill="none" xmlns="http://www.w3.org/2000/svg">
<path d="M29.6338 4.05405C24.6433 4.05405 20.7273 6.82703 20.7273 10.1351C20.7273 13.4432 24.6433 16.2162 29.6338 16.2162C34.6244 16.2162 38.5404 13.4432 38.5404 10.1351C38.5404 6.82703 34.6244 4.05405 29.6338 4.05405ZM14.991 10.1351C14.991 4.48649 21.6183 0 29.6338 0C37.6493 0 44.2766 4.48649 44.2766 10.1351C44.2766 15.7838 37.6493 20.2703 29.6338 20.2703C21.6183 20.2703 14.991 15.7838 14.991 10.1351ZM19.9625 26.2595C19.2665 25.9432 18.7387 25.9243 18.494 25.9703C17.9459 26.0784 17.4003 26.1937 16.8572 26.3162L13.0904 27.1676C11.802 27.4485 10.6238 27.9377 9.64938 28.5963C8.67494 29.255 7.93099 30.065 7.47651 30.9622C7.37337 31.2015 7.30671 31.4479 7.27765 31.6973L5.78622 41.6946L5.77474 41.7297C5.49176 43.1541 6.56635 44.2432 8.19928 44.5135C12.3179 45.1892 19.2512 45.9459 29.6338 45.9459C30.3945 45.9459 31.124 46.1595 31.6619 46.5396C32.1998 46.9198 32.502 47.4354 32.502 47.973C32.502 48.5106 32.1998 49.0262 31.6619 49.4063C31.124 49.7864 30.3945 50 29.6338 50C18.8573 50 11.4843 49.2108 6.89906 48.4595C1.9735 47.6514 -0.523688 44.3784 0.0920061 41.1973L1.57579 31.2703C1.64463 30.8054 1.767 30.2297 2.05381 29.6378C2.80003 28.1453 4.02802 26.7962 5.64038 25.6975C7.25275 24.5988 9.20515 23.7807 11.3428 23.3081L15.1058 22.4541C15.7253 22.3153 16.3473 22.1847 16.972 22.0622C19.3124 21.6081 21.5342 22.1514 23.0754 22.8568C24.4903 23.5054 26.8001 24.2865 29.6338 24.2865C32.4637 24.2865 34.7774 23.5027 36.1923 22.8541C37.7335 22.1514 39.9553 21.6081 42.2957 22.0622C42.9203 22.1847 43.5424 22.3153 44.1619 22.4541L47.9249 23.3081C48.2937 23.3831 48.6375 23.5097 48.9359 23.6803C49.2342 23.8509 49.4811 24.0621 49.6619 24.3013C49.8427 24.5406 49.9537 24.8031 49.9883 25.0732C50.0229 25.3433 49.9805 25.6156 49.8635 25.8739C49.7465 26.1323 49.5574 26.3714 49.3073 26.5771C49.0572 26.7828 48.7512 26.951 48.4074 27.0716C48.0637 27.1923 47.6892 27.2629 47.3061 27.2794C46.923 27.2959 46.5392 27.2578 46.1773 27.1676L42.4104 26.3162C41.8682 26.1931 41.3225 26.0777 40.7737 25.9703C40.5251 25.9243 40.0012 25.9432 39.3052 26.2595C37.3472 27.1568 33.9513 28.3405 29.6338 28.3405C25.3163 28.3405 21.9205 27.1568 19.9586 26.2595" fill="white"/>
<path d="M49.7036 39C49.7036 38.4696 49.4929 37.9609 49.1178 37.5858C48.7428 37.2107 48.234 37 47.7036 37C47.1732 37 46.6645 37.2107 46.2894 37.5858C45.9143 37.9609 45.7036 38.4696 45.7036 39V45H39.7036C39.1732 45 38.6645 45.2107 38.2894 45.5858C37.9143 45.9609 37.7036 46.4696 37.7036 47C37.7036 47.5304 37.9143 48.0391 38.2894 48.4142C38.6645 48.7893 39.1732 49 39.7036 49H45.7036V55C45.7036 55.5304 45.9143 56.0391 46.2894 56.4142C46.6645 56.7893 47.1732 57 47.7036 57C48.234 57 48.7428 56.7893 49.1178 56.4142C49.4929 56.0391 49.7036 55.5304 49.7036 55V49H55.7036C56.234 49 56.7428 48.7893 57.1178 48.4142C57.4929 48.0391 57.7036 47.5304 57.7036 47C57.7036 46.4696 57.4929 45.9609 57.1178 45.5858C56.7428 45.2107 56.234 45 55.7036 45H49.7036V39Z" fill="white"/>
</svg>
