<svg width="128" height="106" viewBox="0 0 128 106" fill="none" xmlns="http://www.w3.org/2000/svg">
<path d="M20.9113 52.6088C20.9092 60.1956 22.8915 67.6036 26.661 74.1331L20.5508 96.4425L43.3816 90.4562C49.6963 93.8938 56.7715 95.695 63.9613 95.6956H63.9802C87.715 95.6956 107.036 76.3818 107.046 52.6428C107.05 41.1395 102.575 30.3226 94.443 22.1845C86.3126 14.0471 75.4995 9.56336 63.9784 9.55811C40.2408 9.55811 20.9214 28.8708 20.9116 52.6088" fill="url(#paint0_linear_2418_909)"/>
<path d="M19.3745 52.5949C19.372 60.4547 21.4255 68.1276 25.3293 74.8909L19 98L42.6495 91.7991C49.1657 95.3519 56.5022 97.2251 63.9676 97.2279H63.9869C88.5733 97.2279 108.588 77.2194 108.599 52.6306C108.603 40.714 103.966 29.5082 95.5438 21.0786C87.1205 12.65 75.9206 8.0049 63.9869 8C39.3963 8 19.3843 28.0057 19.3745 52.5949ZM33.4586 73.7261L32.5756 72.3244C28.8635 66.4221 26.9043 59.6014 26.9071 52.5977C26.9148 32.1598 43.5479 15.5319 64.0009 15.5319C73.9057 15.5361 83.2142 19.3972 90.2155 26.4027C97.2164 33.4089 101.069 42.7222 101.066 52.6278C101.057 73.0657 84.4237 89.6957 63.9869 89.6957H63.9722C57.3177 89.6922 50.7914 87.9051 45.0998 84.528L43.7453 83.7248L29.7112 87.4043L33.4586 73.7261Z" fill="url(#paint1_linear_2418_909)"/>
<path d="M52.8367 33.9515C52.0016 32.0954 51.1228 32.058 50.3286 32.0254C49.6783 31.9974 48.9349 31.9995 48.1922 31.9995C47.4489 31.9995 46.241 32.2792 45.2201 33.3939C44.1981 34.5097 41.3184 37.2061 41.3184 42.6901C41.3184 48.1742 45.3128 53.4745 45.8697 54.2189C46.4272 54.962 53.5811 66.5762 64.9111 71.0442C74.3274 74.7573 76.2436 74.0188 78.2872 73.8326C80.3312 73.6471 84.8825 71.137 85.811 68.5341C86.7403 65.9315 86.7403 63.7006 86.4617 63.2344C86.1831 62.77 85.4397 62.4911 84.325 61.9339C83.2102 61.3767 77.7297 58.6796 76.708 58.3076C75.6861 57.9359 74.943 57.7504 74.1996 58.8665C73.4562 59.9809 71.3216 62.4911 70.671 63.2344C70.021 63.9796 69.3704 64.0723 68.256 63.5148C67.1406 62.9555 63.5507 61.7799 59.2916 57.9828C55.9779 55.0281 53.7407 51.3794 53.0904 50.2633C52.4401 49.1489 53.0208 48.5448 53.5797 47.9894C54.0806 47.4899 54.6948 46.6878 55.2527 46.0371C55.8085 45.3861 55.994 44.9217 56.3657 44.1783C56.7377 43.4342 56.5515 42.7832 56.2733 42.2257C55.994 41.6681 53.8279 36.1554 52.8367 33.9515Z" fill="white"/>
<defs>
<linearGradient id="paint0_linear_2418_909" x1="4345.31" y1="8697.99" x2="4345.31" y2="9.55811" gradientUnits="userSpaceOnUse">
<stop stop-color="#1FAF38"/>
<stop offset="1" stop-color="#60D669"/>
</linearGradient>
<linearGradient id="paint1_linear_2418_909" x1="4498.93" y1="9008" x2="4498.93" y2="8" gradientUnits="userSpaceOnUse">
<stop stop-color="#F9F9F9"/>
<stop offset="1" stop-color="white"/>
</linearGradient>
</defs>
</svg>
