<svg width="90" height="85" viewBox="0 0 90 85" fill="none" xmlns="http://www.w3.org/2000/svg">
<path d="M90 63.2002L69.0698 84.2002L54.4186 69.5002L60.6977 63.2002L69.0698 71.6002L83.7209 56.9002L90 63.2002ZM46.0465 71.6002C46.0465 65.3002 48.1395 59.8402 51.907 55.2202L37.6744 46.4002V21.2002H43.9535V43.0402L56.9302 51.0202C61.1163 48.0802 65.7209 46.4002 71.1628 46.4002C75.3488 46.4002 79.5349 47.6602 82.8837 49.3402C83.3023 46.8202 83.7209 44.7202 83.7209 42.2002C83.7209 19.1002 64.8837 0.200195 41.8605 0.200195C18.8372 0.200195 0 19.1002 0 42.2002C0 65.3002 18.8372 84.2002 41.8605 84.2002C44.3721 84.2002 46.8837 83.7802 48.9767 83.3602C47.3023 80.0002 46.0465 75.8002 46.0465 71.6002Z" fill="white"/>
</svg>
