<svg width="50" height="50" viewBox="0 0 50 50" fill="none" xmlns="http://www.w3.org/2000/svg">
<path fill-rule="evenodd" clip-rule="evenodd" d="M25 0C25.4626 0 25.9062 0.183762 26.2333 0.51086C26.5604 0.837959 26.7442 1.2816 26.7442 1.74419V4.06977C26.7442 4.53235 26.5604 4.976 26.2333 5.30309C25.9062 5.63019 25.4626 5.81395 25 5.81395C24.5374 5.81395 24.0938 5.63019 23.7667 5.30309C23.4396 4.976 23.2558 4.53235 23.2558 4.06977V1.74419C23.2558 1.2816 23.4396 0.837959 23.7667 0.51086C24.0938 0.183762 24.5374 0 25 0ZM7.32326 7.32326C7.65029 6.99663 8.0936 6.81316 8.55581 6.81316C9.01802 6.81316 9.46134 6.99663 9.78837 7.32326L10.7023 8.23488C11.0202 8.56369 11.1962 9.00419 11.1925 9.46152C11.1887 9.91884 11.0055 10.3564 10.6822 10.6799C10.359 11.0035 9.92162 11.1871 9.4643 11.1913C9.00698 11.1955 8.56631 11.0199 8.23721 10.7023L7.32326 9.78837C6.99663 9.46134 6.81316 9.01802 6.81316 8.55581C6.81316 8.0936 6.99663 7.65029 7.32326 7.32326ZM42.6767 7.32326C43.0034 7.65029 43.1868 8.0936 43.1868 8.55581C43.1868 9.01802 43.0034 9.46134 42.6767 9.78837L41.7628 10.7023C41.4322 11.0104 40.9948 11.1781 40.543 11.1702C40.0911 11.1622 39.66 10.9792 39.3404 10.6596C39.0208 10.34 38.8378 9.90889 38.8298 9.45703C38.8218 9.00517 38.9896 8.56785 39.2977 8.23721L40.2116 7.32326C40.5387 6.99663 40.982 6.81316 41.4442 6.81316C41.9064 6.81316 42.3497 6.99663 42.6767 7.32326ZM25 12.7907C21.7619 12.7907 18.6564 14.077 16.3667 16.3667C14.077 18.6564 12.7907 21.7619 12.7907 25C12.7907 28.2381 14.077 31.3436 16.3667 33.6333C18.6564 35.923 21.7619 37.2093 25 37.2093C28.2381 37.2093 31.3436 35.923 33.6333 33.6333C35.923 31.3436 37.2093 28.2381 37.2093 25C37.2093 21.7619 35.923 18.6564 33.6333 16.3667C31.3436 14.077 28.2381 12.7907 25 12.7907ZM9.30233 25C9.30233 20.8367 10.9562 16.844 13.9001 13.9001C16.844 10.9562 20.8367 9.30233 25 9.30233C29.1633 9.30233 33.156 10.9562 36.0999 13.9001C39.0438 16.844 40.6977 20.8367 40.6977 25C40.6977 29.1633 39.0438 33.156 36.0999 36.0999C33.156 39.0438 29.1633 40.6977 25 40.6977C20.8367 40.6977 16.844 39.0438 13.9001 36.0999C10.9562 33.156 9.30233 29.1633 9.30233 25ZM0 25C0 24.5374 0.183762 24.0938 0.51086 23.7667C0.837959 23.4396 1.2816 23.2558 1.74419 23.2558H4.06977C4.53235 23.2558 4.976 23.4396 5.30309 23.7667C5.63019 24.0938 5.81395 24.5374 5.81395 25C5.81395 25.4626 5.63019 25.9062 5.30309 26.2333C4.976 26.5604 4.53235 26.7442 4.06977 26.7442H1.74419C1.2816 26.7442 0.837959 26.5604 0.51086 26.2333C0.183762 25.9062 0 25.4626 0 25ZM44.186 25C44.186 24.5374 44.3698 24.0938 44.6969 23.7667C45.024 23.4396 45.4676 23.2558 45.9302 23.2558H48.2558C48.7184 23.2558 49.162 23.4396 49.4891 23.7667C49.8162 24.0938 50 24.5374 50 25C50 25.4626 49.8162 25.9062 49.4891 26.2333C49.162 26.5604 48.7184 26.7442 48.2558 26.7442H45.9302C45.4676 26.7442 45.024 26.5604 44.6969 26.2333C44.3698 25.9062 44.186 25.4626 44.186 25ZM39.2977 39.2977C39.6247 38.971 40.068 38.7876 40.5302 38.7876C40.9924 38.7876 41.4358 38.971 41.7628 39.2977L42.6767 40.2116C42.8481 40.3713 42.9856 40.5639 43.0809 40.7778C43.1762 40.9918 43.2275 41.2227 43.2316 41.4569C43.2357 41.6911 43.1927 41.9237 43.1049 42.1409C43.0172 42.3581 42.8866 42.5554 42.721 42.721C42.5554 42.8866 42.3581 43.0172 42.1409 43.1049C41.9237 43.1927 41.6911 43.2357 41.4569 43.2316C41.2227 43.2275 40.9918 43.1762 40.7778 43.0809C40.5639 42.9856 40.3713 42.8481 40.2116 42.6767L39.2977 41.7628C38.971 41.4358 38.7876 40.9924 38.7876 40.5302C38.7876 40.068 38.971 39.6247 39.2977 39.2977ZM10.7023 39.2977C11.029 39.6247 11.2124 40.068 11.2124 40.5302C11.2124 40.9924 11.029 41.4358 10.7023 41.7628L9.78837 42.6767C9.62869 42.8481 9.43613 42.9856 9.22218 43.0809C9.00823 43.1762 8.77727 43.2275 8.54308 43.2316C8.30888 43.2357 8.07626 43.1927 7.85907 43.1049C7.64189 43.0172 7.4446 42.8866 7.27898 42.721C7.11336 42.5554 6.98279 42.3581 6.89506 42.1409C6.80734 41.9237 6.76426 41.6911 6.76839 41.4569C6.77252 41.2227 6.82378 40.9918 6.91911 40.7778C7.01444 40.5639 7.15189 40.3713 7.32326 40.2116L8.23488 39.2977C8.39686 39.1356 8.58919 39.007 8.80088 38.9193C9.01256 38.8316 9.23946 38.7864 9.4686 38.7864C9.69775 38.7864 9.92465 38.8316 10.1363 38.9193C10.348 39.007 10.5403 39.1356 10.7023 39.2977ZM25 44.186C25.4626 44.186 25.9062 44.3698 26.2333 44.6969C26.5604 45.024 26.7442 45.4676 26.7442 45.9302V48.2558C26.7442 48.7184 26.5604 49.162 26.2333 49.4891C25.9062 49.8162 25.4626 50 25 50C24.5374 50 24.0938 49.8162 23.7667 49.4891C23.4396 49.162 23.2558 48.7184 23.2558 48.2558V45.9302C23.2558 45.4676 23.4396 45.024 23.7667 44.6969C24.0938 44.3698 24.5374 44.186 25 44.186Z" fill="white"/>
</svg>
