<svg width="90" height="62" viewBox="0 0 90 62" fill="none" xmlns="http://www.w3.org/2000/svg">
<path d="M88.9252 20.8318L80.0503 3.07504C79.7234 2.42148 79.2709 1.83872 78.7187 1.36005C78.1665 0.881371 77.5255 0.516157 76.8321 0.285259C76.1388 0.0543609 75.4068 -0.0376982 74.6778 0.0143393C73.9489 0.0663767 73.2374 0.261492 72.5839 0.588541L63.935 4.91122L45.7158 0.0912413C45.2483 -0.0304138 44.7574 -0.0304138 44.29 0.0912413L26.0707 4.91122L17.4219 0.588541C16.7683 0.261492 16.0568 0.0663767 15.3279 0.0143393C14.599 -0.0376982 13.8669 0.0543609 13.1736 0.285259C12.4803 0.516157 11.8392 0.881371 11.287 1.36005C10.7348 1.83872 10.2823 2.42148 9.9554 3.07504L1.08051 20.8283C0.753465 21.4818 0.55835 22.1933 0.506313 22.9223C0.454275 23.6512 0.546334 24.3832 0.777232 25.0765C1.00813 25.7699 1.37334 26.411 1.85202 26.9631C2.33069 27.5153 2.91345 27.9678 3.56701 28.2947L12.9566 32.993L32.2539 46.7748C32.5384 46.9768 32.858 47.1242 33.1963 47.2095L55.4531 52.7737C55.9192 52.8906 56.4077 52.8848 56.8708 52.7568C57.334 52.6288 57.7561 52.383 58.0961 52.0434L77.2474 32.8887L86.4352 28.2947C87.7543 27.6344 88.7571 26.4774 89.2234 25.078C89.6897 23.6786 89.5811 22.1512 88.9217 20.8318H88.9252ZM69.8366 32.4366L57.8701 22.8523C57.334 22.4229 56.658 22.2071 55.9723 22.2463C55.2867 22.2854 54.6397 22.5768 54.156 23.0644C47.9623 29.3033 41.0592 28.5138 36.6566 25.7317L51.6938 11.1257H62.7561L72.2187 30.0475L69.8366 32.4366ZM14.9319 5.56154L22.0506 9.11567L13.1583 26.8689L6.05351 23.3183L14.9319 5.56154ZM55.2723 46.9904L35.0638 41.9409L17.9539 29.7206L27.6913 10.2459L45.0029 5.65891L48.4109 6.55962L32.7616 21.7499L32.7338 21.7812C32.1447 22.3702 31.6954 23.0841 31.4191 23.87C31.1428 24.656 31.0464 25.4939 31.1372 26.322C31.228 27.1502 31.5036 27.9474 31.9437 28.6547C32.3837 29.3621 32.977 29.9617 33.6797 30.4091C40.8297 34.9753 49.4577 34.2345 56.253 28.6703L65.8686 36.3941L55.2723 46.9904ZM76.8335 26.8654L67.9586 9.12958L75.0739 5.56154L83.9522 23.3183L76.8335 26.8654ZM46.3174 59.0926C46.1671 59.6939 45.8203 60.2278 45.3321 60.6095C44.8438 60.9913 44.2421 61.1991 43.6223 61.2C43.3936 61.2001 43.1659 61.1721 42.9441 61.1165L28.4529 57.4929C28.114 57.4091 27.7941 57.2616 27.5104 57.0582L18.3469 50.5133C17.7835 50.0709 17.4124 49.4282 17.3109 48.7191C17.2095 48.0099 17.3855 47.289 17.8023 46.7064C18.2191 46.1237 18.8446 45.7243 19.5485 45.5913C20.2524 45.4583 20.9804 45.602 21.5811 45.9924L30.3134 52.2312L44.3073 55.7227C45.023 55.9018 45.6383 56.3577 46.0178 56.9903C46.3974 57.6229 46.5101 58.3803 46.3313 59.096L46.3174 59.0926Z" fill="white"/>
</svg>
