<svg width="50" height="41" viewBox="0 0 50 41" fill="none" xmlns="http://www.w3.org/2000/svg">
<path fill-rule="evenodd" clip-rule="evenodd" d="M7.50983 16.2018C7.555 12.3773 8.924 8.68907 11.3799 5.77529C13.8359 2.86152 17.2242 0.905537 20.9586 0.245804C24.6931 -0.413928 28.5386 0.264101 31.8299 2.16257C35.1211 4.06103 37.651 7.06048 38.9817 10.6419C42.4807 11.6154 45.5115 13.8351 47.5127 16.8899C49.5139 19.9448 50.3499 23.6278 49.8659 27.2568C49.382 30.8858 47.6108 34.2149 44.8804 36.6275C42.15 39.0401 38.6455 40.3728 35.0158 40.3787H12.5109C9.63707 40.3806 6.85031 39.3836 4.61968 37.5556C2.38905 35.7277 0.850741 33.1802 0.26367 30.3421C-0.323401 27.5041 0.07661 24.5486 1.39638 21.9731C2.71614 19.3977 4.87509 17.3596 7.50983 16.2018ZM23.7634 5.06183C22.18 5.06153 20.6144 5.39833 19.1689 6.05024C17.7234 6.70215 16.4305 7.65447 15.3748 8.84497C14.3192 10.0355 13.5244 11.4373 13.0425 12.9589C12.5606 14.4805 12.4025 16.0875 12.5784 17.675C12.6451 18.287 12.4899 18.9027 12.1415 19.4082C11.793 19.9136 11.275 20.2747 10.683 20.4247C8.91497 20.8817 7.37256 21.973 6.34434 23.4943C5.31613 25.0157 4.87255 26.8628 5.0966 28.6902C5.32064 30.5175 6.19696 32.2 7.56162 33.4227C8.92627 34.6454 10.6858 35.3247 12.5109 35.3334H35.0158C37.5289 35.3372 39.9514 34.3865 41.8013 32.6704C43.6512 30.9543 44.7929 28.5985 44.9993 26.0718C45.2057 23.545 44.4618 21.0325 42.9154 19.0339C41.369 17.0354 39.1335 15.6974 36.6537 15.2861C36.1762 15.2064 35.7314 14.99 35.3723 14.6627C35.0133 14.3353 34.755 13.9107 34.6282 13.4395C33.9807 11.0331 32.5658 8.90879 30.602 7.3946C28.6383 5.88041 26.235 5.06062 23.7634 5.06183Z" fill="white"/>
</svg>
