<svg width="90" height="73" viewBox="0 0 90 73" fill="none" xmlns="http://www.w3.org/2000/svg">
<path d="M13.3497 19.1476C13.3497 14.1224 15.359 9.30307 18.9355 5.74975C22.512 2.19643 27.3628 0.200195 32.4207 0.200195C37.4787 0.200195 42.3295 2.19643 45.906 5.74975C49.4825 9.30307 51.4918 14.1224 51.4918 19.1476C51.4918 24.1727 49.4825 28.9921 45.906 32.5454C42.3295 36.0987 37.4787 38.0949 32.4207 38.0949C27.3628 38.0949 22.512 36.0987 18.9355 32.5454C15.359 28.9921 13.3497 24.1727 13.3497 19.1476ZM90 24.6044L68.423 46.0377L54.9398 32.6419L60.3331 27.2798L68.423 35.321L84.6067 19.2423L90 24.6044ZM0 64.6212C0 59.5961 2.00926 54.7768 5.58577 51.2234C9.16229 47.6701 14.0131 45.6739 19.071 45.6739H45.7705C50.8284 45.6739 55.6792 47.6701 59.2557 51.2234C62.8322 54.7768 64.8415 59.5961 64.8415 64.6212V72.2002H0V64.6212Z" fill="white"/>
</svg>
