<svg width="50" height="50" viewBox="0 0 50 50" fill="none" xmlns="http://www.w3.org/2000/svg">
<path d="M2.5 5V0H10V5H2.5ZM0 50H22.5V40H2L0 50ZM10.3125 18.3125L6.75 14.8125L12.0625 9.5L15.625 13L10.3125 18.3125ZM3 35H22.5V25H5L3 35ZM25 12.5C21.5417 12.5 18.5942 11.2808 16.1575 8.8425C13.7208 6.40417 12.5017 3.45667 12.5 0H37.5C37.5 3.45833 36.2808 6.40667 33.8425 8.845C31.4042 11.2833 28.4567 12.5017 25 12.5ZM22.5 22.5V15H27.5V22.5H22.5ZM27.5 50H50L48 40H27.5V50ZM27.5 35H47L45 25H27.5V35ZM39.6875 18.3125L34.4375 13L37.9375 9.5L43.25 14.75L39.6875 18.3125ZM40 5V0H47.5V5H40Z" fill="white"/>
</svg>
