<svg width="50" height="50" viewBox="0 0 50 50" fill="none" xmlns="http://www.w3.org/2000/svg">
<path d="M25 4.50371C19.843 4.50371 14.8972 6.16362 11.2507 9.11828C7.60416 12.0729 5.55556 16.0803 5.55556 20.2588C5.55556 26.7004 10.5056 32.9147 15.9389 37.729C18.7171 40.1815 21.7484 42.4374 25 44.4722C25.4852 44.1706 26.0546 43.803 26.7083 43.3693C29.3189 41.6324 31.7759 39.7491 34.0611 37.7335C39.4944 32.9147 44.4444 26.7027 44.4444 20.2588C44.4444 16.0803 42.3958 12.0729 38.7493 9.11828C35.1028 6.16362 30.157 4.50371 25 4.50371ZM25 50L23.425 49.1222L23.4167 49.1177L23.4 49.1065L23.3444 49.0749L23.1361 48.9557L22.3861 48.5123C18.5857 46.198 15.0552 43.6063 11.8389 40.7697C6.16111 35.7326 0 28.4425 0 20.2566C9.88008e-08 14.8842 2.63392 9.73186 7.32233 5.93302C12.0107 2.13417 18.3696 0 25 0C31.6304 0 37.9893 2.13417 42.6777 5.93302C47.3661 9.73186 50 14.8842 50 20.2566C50 28.4425 43.8389 35.7349 38.1611 40.7652C34.9457 43.6017 31.4161 46.1934 27.6167 48.5078C27.3002 48.6993 26.9807 48.8876 26.6583 49.0727L26.6 49.1042L26.5833 49.1155L26.5778 49.1177L25 50ZM25 15.7574C23.5266 15.7574 22.1135 16.2316 21.0716 17.0758C20.0298 17.92 19.4444 19.065 19.4444 20.2588C19.4444 21.4527 20.0298 22.5977 21.0716 23.4418C22.1135 24.286 23.5266 24.7603 25 24.7603C26.4734 24.7603 27.8865 24.286 28.9284 23.4418C29.9702 22.5977 30.5556 21.4527 30.5556 20.2588C30.5556 19.065 29.9702 17.92 28.9284 17.0758C27.8865 16.2316 26.4734 15.7574 25 15.7574ZM13.8889 20.2588C13.8889 17.8711 15.0595 15.5812 17.1433 13.8928C19.227 12.2044 22.0531 11.2559 25 11.2559C27.9468 11.2559 30.773 12.2044 32.8567 13.8928C34.9405 15.5812 36.1111 17.8711 36.1111 20.2588C36.1111 22.6466 34.9405 24.9365 32.8567 26.6249C30.773 28.3132 27.9468 29.2618 25 29.2618C22.0531 29.2618 19.227 28.3132 17.1433 26.6249C15.0595 24.9365 13.8889 22.6466 13.8889 20.2588Z" fill="white"/>
</svg>
